<?xml version="1.0" encoding="utf-8"?>
<!-- Generator: Adobe Illustrator 26.0.0, SVG Export Plug-In . SVG Version: 6.00 Build 0)  -->
<svg version="1.1" id="Capa_1" xmlns="http://www.w3.org/2000/svg" xmlns:xlink="http://www.w3.org/1999/xlink" x="0px" y="0px"
	 viewBox="0 0 16.6 16.6" style="enable-background:new 0 0 16.6 16.6;" xml:space="preserve">
<style type="text/css">
	.st0{fill:#637FFD;}
</style>
<path class="st0" d="M12.2,7.3c0.1,0.1,0.1,0.3,0,0.4l-1.7,1.5C10.3,9.4,10,9,10.2,8.8l1.5-1.3l-1.5-1.3C10,6,10.3,5.6,10.6,5.8
	L12.2,7.3z M6.4,6.2L4.9,7.5l1.5,1.3C6.6,9,6.3,9.4,6,9.2L4.3,7.7c-0.1-0.1-0.1-0.3,0-0.4L6,5.8C6.3,5.6,6.6,6,6.4,6.2z M9.5,5.3
	l-2,4.7c0,0.1-0.2,0.2-0.3,0.1C7,10,7,9.9,7.1,9.8l2-4.7C9.2,4.8,9.7,5,9.5,5.3L9.5,5.3z M12.6,1.2c0.2,0.2,0,0.4-0.2,0.4
	C12,1.6,12.3,1,12.6,1.2z M11.1,1.2c0.3,0,0.3,0.5,0,0.5S10.8,1.2,11.1,1.2z M10,1.2c0.2,0.2,0,0.4-0.2,0.4C9.3,1.6,9.6,1,10,1.2z
	 M12.5,2.9H4.1c-0.3,0-0.3-0.5,0-0.5h8.4C12.8,2.3,12.8,2.9,12.5,2.9z M16.1,13.6c0,0.2-0.2,0.4-0.4,0.4H0.9c-0.2,0-0.4-0.2-0.4-0.4
	v-1.1h15.6V13.6z M11.1,16.1H5.5v-1.5h5.5V16.1z M0.5,3.3c0-0.2,0.2-0.4,0.4-0.4h1.3v9.2H0.5V3.3z M2.7,0.5h11.2v11.6H2.7V0.5z
	 M15.7,2.8c0.2,0,0.4,0.2,0.4,0.4v8.8h-1.7V2.9L15.7,2.8z M15.7,2.3h-1.3V0.2c0-0.1-0.1-0.2-0.2-0.2H2.4C2.3,0,2.2,0.1,2.2,0.2v2.1
	H0.9C0.4,2.3,0,2.8,0,3.3v10.4c0,0.5,0.4,0.9,0.9,0.9H5v1.5H3.3c-0.1,0-0.3,0.1-0.3,0.2c0,0.1,0.1,0.3,0.3,0.2h10.1
	c0.3,0,0.3-0.5,0-0.5h-1.8v-1.5h4.1c0.5,0,0.9-0.4,0.9-0.9V3.3C16.6,2.8,16.2,2.3,15.7,2.3z"/>
</svg>
