<?xml version="1.0" encoding="utf-8"?>
<!-- Generator: Adobe Illustrator 26.0.0, SVG Export Plug-In . SVG Version: 6.00 Build 0)  -->
<svg version="1.1" id="Capa_1" xmlns="http://www.w3.org/2000/svg" xmlns:xlink="http://www.w3.org/1999/xlink" x="0px" y="0px"
	 viewBox="0 0 42.5 42.5" style="enable-background:new 0 0 42.5 42.5;" xml:space="preserve">
<style type="text/css">
	.st0{fill:#040019;}
</style>
<path class="st0" d="M21.1,28.3c-3.4,0-6.1-2.8-6.1-6.1s2.8-6.1,6.1-6.1s6.1,2.8,6.1,6.1S24.5,28.3,21.1,28.3z M21.1,12.5
	c-5.3,0-9.6,4.3-9.6,9.6c0,5.3,4.3,9.6,9.6,9.6c5.3,0,9.6-4.4,9.6-9.6S26.4,12.5,21.1,12.5z"/>
<path class="st0" d="M33.3,12.3c0,2.9-4.4,2.9-4.4,0C28.9,9.4,33.3,9.4,33.3,12.3"/>
<path class="st0" d="M36.4,29.9c0,2.3-0.8,4.2-2.2,5.5c-1.4,1.3-3.2,2-5.5,2H13.5c-2.2,0-4.1-0.7-5.5-2c-1.3-1.4-2-3.2-2-5.6V14.5
	c0-2.2,0.7-4.1,2-5.5c1.3-1.3,3.2-1.9,5.5-1.9h15.4c2.2,0,4.1,0.7,5.5,2c1.3,1.4,2,3.2,2,5.4V29.9z M36.8,6.7
	c-1.9-2-4.7-3.1-7.9-3.1H13.4C6.9,3.6,2.6,8,2.6,14.5v15.4c0,3.2,1.1,6,3.1,8c2,1.9,4.7,2.9,7.8,2.9h15.3c3.2,0,5.9-1.1,7.9-2.9
	c2-1.9,3.1-4.7,3.1-7.9V14.5C39.8,11.3,38.7,8.6,36.8,6.7z"/>
</svg>
