<?xml version="1.0" encoding="utf-8"?>
<!-- Generator: Adobe Illustrator 26.0.0, SVG Export Plug-In . SVG Version: 6.00 Build 0)  -->
<svg version="1.1" id="Capa_1" xmlns="http://www.w3.org/2000/svg" xmlns:xlink="http://www.w3.org/1999/xlink" x="0px" y="0px"
	 viewBox="0 0 42.5 42.5" style="enable-background:new 0 0 42.5 42.5;" xml:space="preserve">
<style type="text/css">
	.st0{fill:#040019;}
</style>
<path class="st0" d="M39.6,11.3c-1.4,0.6-2.9,1-4.4,1.2c1.6-0.9,2.8-2.4,3.3-4.2c-1.5,0.9-3.1,1.5-4.8,1.8c-1.4-1.5-3.4-2.4-5.5-2.4
	c-4.2,0-7.6,3.4-7.6,7.6c0,0.6,0.1,1.2,0.2,1.7C14.6,16.7,9,13.7,5.3,9.1c-0.7,1.2-1,2.5-1,3.8c0,2.6,1.3,4.9,3.4,6.3
	c-1.2,0-2.4-0.4-3.4-0.9v0.1c0,3.7,2.6,6.7,6.1,7.4C9.1,26.1,8,26.2,6.8,26c1,3,3.8,5.2,7.1,5.3c-2.7,2.1-6,3.2-9.4,3.2
	c-0.6,0-1.2,0-1.8-0.1c3.5,2.2,7.5,3.4,11.6,3.4c13.9,0,21.6-11.6,21.6-21.6c0-0.3,0-0.7,0-1C37.3,14.2,38.6,12.8,39.6,11.3
	L39.6,11.3z"/>
</svg>
