<?xml version="1.0" encoding="utf-8"?>
<!-- Generator: Adobe Illustrator 26.0.0, SVG Export Plug-In . SVG Version: 6.00 Build 0)  -->
<svg version="1.1" id="Capa_1" xmlns="http://www.w3.org/2000/svg" xmlns:xlink="http://www.w3.org/1999/xlink" x="0px" y="0px"
	 viewBox="0 0 17.2 17.2" style="enable-background:new 0 0 17.2 17.2;" xml:space="preserve">
<style type="text/css">
	.st0{fill:#637FFD;}
</style>
<path class="st0" d="M16.9,16.5H1.3l5.5-5.6l2.4,2.4c0,0,0.1,0.1,0.1,0.1c0.1,0,0.2,0,0.3,0c0,0,0.1,0,0.1-0.1l6.5-6.6v2.4
	c0,0.5,0.8,0.5,0.8,0V5.9c0-0.2-0.2-0.4-0.4-0.4h-3.3c-0.5,0-0.5,0.8,0,0.8h2.4l-6.3,6.3l-2.4-2.4c-0.1-0.1-0.4-0.1-0.5,0L0.8,16
	V0.4c0-0.5-0.8-0.5-0.8,0v16.5c0,0.1,0,0.2,0.1,0.3c0,0,0.1,0.1,0.1,0.1c0,0,0.1,0,0.1,0h16.5C17.4,17.3,17.4,16.5,16.9,16.5
	L16.9,16.5z"/>
</svg>
