<?xml version="1.0" encoding="utf-8"?>
<!-- Generator: Adobe Illustrator 26.0.0, SVG Export Plug-In . SVG Version: 6.00 Build 0)  -->
<svg version="1.1" id="Capa_1" xmlns="http://www.w3.org/2000/svg" xmlns:xlink="http://www.w3.org/1999/xlink" x="0px" y="0px"
	 viewBox="0 0 24 24" style="enable-background:new 0 0 24 24;" xml:space="preserve">
<style type="text/css">
	.st0{fill:#637FFD;}
</style>
<path class="st0" d="M8.2,3.8H6c-1,0-1,1.5,0,1.5h2.2C9.2,5.2,9.2,3.8,8.2,3.8z M3.8,3.8H2.2c-0.4,0-0.8,0.3-0.8,0.8V6
	C1.5,7,3,7,3,6V5.2h0.8C4.8,5.2,4.8,3.8,3.8,3.8z M2.2,16.4C2.7,16.4,3,16,3,15.6v-2.4c0-1-1.5-1-1.5,0v2.4
	C1.5,16,1.8,16.4,2.2,16.4z M2.2,11.6c0.4,0,0.8-0.3,0.8-0.8V8.4c0-1-1.5-1-1.5,0v2.4C1.5,11.2,1.8,11.6,2.2,11.6z M3.8,18.8H3V18
	c0-1-1.5-1-1.5,0v1.5c0,0.4,0.3,0.8,0.8,0.8h1.5C4.8,20.2,4.8,18.8,3.8,18.8z M8.2,18.8H6c-1,0-1,1.5,0,1.5h2.2
	C9.2,20.2,9.2,18.8,8.2,18.8z M21,18.8h-8.2V5.2H21V18.8z M21.8,3.8h-9V2.2c0-1-1.5-1-1.5,0v1.5h-0.8c-1,0-1,1.5,0,1.5h0.8v13.5
	h-0.8c-1,0-1,1.5,0,1.5h0.8v1.5c0,1,1.5,1,1.5,0v-1.5h9c0.4,0,0.8-0.3,0.8-0.8v-15C22.5,4.1,22.2,3.8,21.8,3.8z"/>
</svg>
