<?xml version="1.0" encoding="utf-8"?>
<!-- Generator: Adobe Illustrator 26.0.0, SVG Export Plug-In . SVG Version: 6.00 Build 0)  -->
<svg version="1.1" id="Capa_1" xmlns="http://www.w3.org/2000/svg" xmlns:xlink="http://www.w3.org/1999/xlink" x="0px" y="0px"
	 viewBox="0 0 36 45" style="enable-background:new 0 0 36 45;" xml:space="preserve">
<style type="text/css">
	.st0{fill-rule:evenodd;clip-rule:evenodd;fill:#637FFD;}
</style>
<path class="st0" d="M22.5,15v2.2c0,1-1.5,1-1.5,0V15C21,14,22.5,14,22.5,15z M26.2,18c0.4,0,0.8-0.3,0.8-0.8V7l3-4.8L32.4,6h-3.1
	c-1,0-1,1.5,0,1.5h4.5c0.6,0,0.9-0.6,0.6-1.1l-3.8-6c-0.3-0.4-1-0.4-1.3,0l-3.8,6c-0.1,0.1-0.1,0.3-0.1,0.4v10.5
	C25.5,17.7,25.8,18,26.2,18z M33.8,9C33.3,9,33,9.3,33,9.8v7.5c0,1,1.5,1,1.5,0V9.8C34.5,9.3,34.2,9,33.8,9z M29.2,9.8v7.5
	c0,1,1.5,1,1.5,0V9.8C30.8,8.8,29.2,8.8,29.2,9.8z M2.2,18h1.5c1,0,1-1.5,0-1.5H3V15h3.8c1,0,1-1.5,0-1.5H3V12h0.8c1,0,1-1.5,0-1.5
	H3V9h0.8c1,0,1-1.5,0-1.5H3V6h3.8c1,0,1-1.5,0-1.5H3v-3h9v15.8c0,1,1.5,1,1.5,0V0.8c0-0.4-0.3-0.8-0.8-0.8H2.2
	C1.8,0,1.5,0.3,1.5,0.8v16.5C1.5,17.7,1.8,18,2.2,18z M16.5,12.3v4.9c0,1,1.5,1,1.5,0V12c0-0.2-0.1-0.5-0.3-0.6
	c-0.8-0.6-1.2-1.5-1.2-2.4c0-1.9,1.8-5.1,3-6.9c1.2,1.8,3,5,3,6.9c0,1.4-1,2.7-2.4,2.9c-1,0.2-0.7,1.7,0.3,1.5C22.5,13,24,11.1,24,9
	c0-3.2-3.7-8.5-3.9-8.7c-0.3-0.4-0.9-0.4-1.2,0C18.7,0.5,15,5.8,15,9C15,10.3,15.5,11.5,16.5,12.3z M34.5,19.5h-33
	C0.7,19.5,0,20.2,0,21v3c0,0.8,0.7,1.5,1.5,1.5v15.8c0,2.1,1.7,3.8,3.8,3.8h25.5c2.1,0,3.8-1.7,3.8-3.8V27.8c0-1-1.5-1-1.5,0v13.5
	c0,1.2-1,2.2-2.2,2.2H5.2c-1.2,0-2.2-1-2.2-2.2V24.8C3,24.3,2.7,24,2.2,24H1.5v-3h33v3H5.2c-1,0-1,1.5,0,1.5h29.2
	c0.8,0,1.5-0.7,1.5-1.5v-3C36,20.2,35.3,19.5,34.5,19.5z M30,27.8c0-1-1.5-1-1.5,0v6c0,1,1.5,1,1.5,0V27.8z M29.2,36
	c-0.4,0-0.8,0.3-0.8,0.8v1.5c0,1,1.5,1,1.5,0v-1.5C30,36.3,29.7,36,29.2,36z"/>
</svg>
