<?xml version="1.0" encoding="utf-8"?>
<!-- Generator: Adobe Illustrator 26.0.0, SVG Export Plug-In . SVG Version: 6.00 Build 0)  -->
<svg version="1.1" id="Capa_1" xmlns="http://www.w3.org/2000/svg" xmlns:xlink="http://www.w3.org/1999/xlink" x="0px" y="0px"
	 viewBox="0 0 42.5 42.5" style="enable-background:new 0 0 42.5 42.5;" xml:space="preserve">
<style type="text/css">
	.st0{fill-rule:evenodd;clip-rule:evenodd;fill:#040019;}
</style>
<path class="st0" d="M21.7,36.5L21.7,36.5c-2.8,0-5.5-0.7-7.8-2.1L13.3,34l-5.8,1.5l1.6-5.7l-0.4-0.6c-1.5-2.4-2.4-5.3-2.3-8.2
	c0-8.5,6.9-15.4,15.4-15.4c4.1,0,8,1.6,10.9,4.5c2.9,2.9,4.5,6.8,4.5,10.9C37.1,29.6,30.2,36.5,21.7,36.5L21.7,36.5z M34.8,8
	c-3.5-3.5-8.1-5.4-13.1-5.4c-10.2,0-18.5,8.3-18.5,18.5c0,3.2,0.8,6.4,2.5,9.2l-2.6,9.6l9.8-2.6c2.7,1.5,5.7,2.2,8.8,2.2h0
	c10.2,0,18.5-8.3,18.5-18.5C40.2,16.2,38.3,11.5,34.8,8L34.8,8z"/>
<path class="st0" d="M30.1,25c-0.5-0.2-2.7-1.3-3.2-1.5c-0.4-0.2-0.7-0.2-1,0.2c-0.3,0.5-1.2,1.5-1.5,1.8c-0.3,0.3-0.5,0.3-1,0.1
	c-0.5-0.2-1.9-0.7-3.7-2.3c-1.4-1.2-2.3-2.7-2.6-3.2c-0.3-0.5,0-0.7,0.2-0.9c0.2-0.2,0.5-0.5,0.7-0.8c0.2-0.3,0.3-0.5,0.5-0.8
	c0.2-0.3,0.1-0.6,0-0.8c-0.1-0.2-1-2.5-1.4-3.4c-0.4-0.9-0.8-0.8-1-0.8c-0.3,0-0.6,0-0.9,0c-0.3,0-0.8,0.1-1.2,0.6
	c-0.4,0.5-1.6,1.6-1.6,3.9c0,2.3,1.7,4.5,1.9,4.8c0.2,0.3,3.3,5,7.9,7c0.9,0.4,1.7,0.7,2.6,1c1.1,0.4,2.1,0.3,2.9,0.2
	c0.9-0.1,2.7-1.1,3.1-2.2c0.4-1.1,0.4-2,0.3-2.2C30.9,25.3,30.6,25.2,30.1,25L30.1,25z"/>
</svg>
